<!--?xml version="1.0" encoding="utf-8"?-->
<!-- Generator: Adobe Illustrator 18.1.1, SVG Export Plug-In . SVG Version: 6.00 Build 0)  -->

<svg version="1.1" id="_x32_" xmlns="http://www.w3.org/2000/svg" xmlns:xlink="http://www.w3.org/1999/xlink" x="0px" y="0px" viewBox="0 0 512 512" style="width: 256px; height: 256px; opacity: 1;" xml:space="preserve">
<style type="text/css">
	.st0{fill:#4B4B4B;}
</style>
<g>
	<path class="st0" d="M114.971,126.724v111.262c0,7.99,11.434,14.455,25.535,14.455c14.1,0,25.531-6.465,25.531-14.455V126.724
		c0-7.989-11.43-14.454-25.531-14.454C126.405,112.27,114.971,118.735,114.971,126.724z" style="fill: rgb(75, 75, 75);"></path>
	<path class="st0" d="M139.281,104.924c29.997,0.635,41.789-23.232,41.173-41.839C179.787,43.164,173.15,13.947,129.986,0
		c-1.333,23.242-29.888,33.198-31.216,64.083C97.999,81.992,108.069,104.262,139.281,104.924z M138.614,42.502
		c17.932,11.951,20.321,24.084,20.639,33.669c0.299,8.95-5.372,20.43-19.804,20.13c-15.017-0.326-19.859-11.036-19.491-19.65
		C120.597,61.798,136.624,54.453,138.614,42.502z" style="fill: rgb(75, 75, 75);"></path>
	<path class="st0" d="M229.266,126.724v111.262c0,7.99,11.43,14.455,25.535,14.455c14.101,0,25.527-6.465,25.527-14.455V126.724
		c0-7.989-11.426-14.454-25.527-14.454C240.696,112.27,229.266,118.735,229.266,126.724z" style="fill: rgb(75, 75, 75);"></path>
	<path class="st0" d="M253.572,104.924c29.997,0.635,41.794-23.232,41.173-41.839C294.083,43.164,287.441,13.947,244.278,0
		c-1.328,23.242-29.888,33.198-31.212,64.083C212.295,81.992,222.361,104.262,253.572,104.924z M252.91,42.502
		c17.932,11.951,20.317,24.084,20.639,33.669c0.294,8.95-5.377,20.43-19.809,20.13c-15.017-0.326-19.859-11.036-19.488-19.65
		C234.888,61.798,250.916,54.453,252.91,42.502z" style="fill: rgb(75, 75, 75);"></path>
	<path class="st0" d="M179.225,172.145c11.81-1.886,24.115-3.364,36.851-4.361v-22.045c-12.663,0.953-24.986,2.313-36.851,4.117
		V172.145z" style="fill: rgb(75, 75, 75);"></path>
	<path class="st0" d="M293.517,167.602c12.708,0.925,25.045,2.304,36.852,4.117v-22.207c-11.874-1.741-24.202-3.038-36.852-3.927
		V167.602z" style="fill: rgb(75, 75, 75);"></path>
	<path class="st0" d="M485.57,232.963c0.018-0.58,0.104-1.152,0.104-1.741h-0.635c-0.784-2.33-1.677-4.633-2.765-6.865
		c-6.325-12.876-17.174-23.93-31.126-33.586c-12.128-8.343-26.764-15.661-43.339-21.936v23.604c0.041,0.018,0.086,0.028,0.126,0.046
		c19.079,7.98,34.11,17.429,43.853,27.113c4.883,4.842,8.442,9.703,10.732,14.4c1.582,3.255,2.548,6.42,3.015,9.585
		c-0.332,0.815-0.644,1.632-1.043,2.448c-4.213,8.688-12.5,17.665-24.584,25.98c-18.082,12.505-44.414,23.414-76.02,31.012
		c-31.62,7.636-68.517,12.033-107.89,12.033c-59.984,0.018-114.268-10.274-152.785-26.451c-19.26-8.052-34.52-17.6-44.545-27.575
		c-5.028-4.979-8.742-10.029-11.163-14.999c-0.398-0.816-0.711-1.632-1.043-2.448c0.472-3.165,1.438-6.33,3.02-9.585
		c3.976-8.215,11.983-16.966,23.853-25.136c7.898-5.459,17.519-10.61,28.45-15.342v-23.786c-2.098,0.816-4.193,1.632-6.22,2.485
		c-20.897,8.787-38.212,19.296-50.825,31.774c-6.294,6.239-11.416,13.012-15.012,20.366c-1.088,2.232-1.982,4.534-2.771,6.865h-0.63
		c0,0.59,0.082,1.161,0.104,1.75c-1.452,4.814-2.308,9.794-2.304,14.871V408.39c-0.008,8.17,2.01,16.141,5.6,23.486
		c6.32,12.876,17.17,23.93,31.125,33.578c20.984,14.445,49.293,25.907,82.627,33.968C176.803,507.457,215.152,512,255.998,512
		c62.26-0.028,118.649-10.501,160.439-27.984c20.896-8.787,38.212-19.306,50.825-31.774c6.293-6.238,11.417-13.012,15.012-20.366
		c3.591-7.345,5.608-15.316,5.599-23.486V247.843C487.877,242.766,487.02,237.787,485.57,232.963z M465.892,408.39
		c-0.008,4.615-1.084,9.132-3.372,13.837c-3.977,8.225-11.984,16.967-23.858,25.136c-17.76,12.297-43.87,23.141-75.295,30.695
		c-31.424,7.58-68.158,11.97-107.368,11.96c-59.73,0.027-113.779-10.237-151.937-26.279c-19.074-7.971-34.108-17.42-43.847-27.104
		c-4.883-4.842-8.442-9.703-10.732-14.409c-2.295-4.706-3.364-9.222-3.374-13.837v-35.928c4.897,5.133,10.677,9.957,17.243,14.491
		c20.334,14.018,48.209,25.354,81.157,33.316c32.948,7.943,70.97,12.459,111.489,12.459c61.752-0.019,117.679-10.446,158.738-27.649
		c20.534-8.623,37.391-18.925,49.429-30.84c0.607-0.598,1.147-1.233,1.727-1.84V408.39z M465.892,319.307
		c-4.578,8.806-12.922,17.628-24.732,25.771c-18.404,12.714-44.959,23.686-76.76,31.339c-31.806,7.672-68.862,12.088-108.403,12.088
		c-60.238,0.018-114.754-10.292-153.637-26.614c-19.436-8.143-34.924-17.8-45.244-28.047c-4.82-4.779-8.464-9.667-11.009-14.554
		v-46.011c4.671,4.66,10.012,9.068,15.996,13.203c20.657,14.236,48.749,25.625,81.887,33.632
		c33.139,7.989,71.324,12.514,112.006,12.524c62.007-0.019,118.164-10.474,159.591-27.811c20.715-8.714,37.8-19.115,50.127-31.312
		c0.059-0.064,0.114-0.127,0.176-0.19V319.307z" style="fill: rgb(75, 75, 75);"></path>
	<path class="st0" d="M343.557,126.724v111.262c0,7.99,11.435,14.455,25.535,14.455c14.101,0,25.53-6.465,25.53-14.455V126.724
		c0-7.989-11.43-14.454-25.53-14.454C354.992,112.27,343.557,118.735,343.557,126.724z" style="fill: rgb(75, 75, 75);"></path>
	<path class="st0" d="M367.864,104.924c29.997,0.635,41.794-23.232,41.178-41.839C408.375,43.164,401.733,13.947,358.569,0
		c-1.328,23.242-29.882,33.198-31.211,64.083C326.587,81.992,336.653,104.262,367.864,104.924z M367.202,42.502
		c17.932,11.951,20.322,24.084,20.639,33.669c0.299,8.95-5.377,20.43-19.808,20.13c-15.012-0.326-19.854-11.036-19.488-19.65
		C349.184,61.798,365.212,54.453,367.202,42.502z" style="fill: rgb(75, 75, 75);"></path>
</g>
</svg>
