<!--?xml version="1.0" encoding="utf-8"?-->
<!-- Generator: Adobe Illustrator 18.1.1, SVG Export Plug-In . SVG Version: 6.00 Build 0)  -->

<svg version="1.1" id="_x32_" xmlns="http://www.w3.org/2000/svg" xmlns:xlink="http://www.w3.org/1999/xlink" x="0px" y="0px" viewBox="0 0 512 512" style="width: 256px; height: 256px; opacity: 1;" xml:space="preserve">
<style type="text/css">
	.st0{fill:#4B4B4B;}
</style>
<g>
	<path class="st0" d="M442.723,423.197c38.902-48.621,35.868-119.947-9.143-164.978c-19.25-19.26-44.152-31.535-70.907-35.156
		c-3.6-26.744-15.865-51.625-35.136-70.896c-19.271-19.26-44.152-31.535-70.897-35.154c-3.61-26.736-15.895-51.617-35.156-70.888
		C176.413,1.074,105.049-1.99,56.418,36.892L19.525,0L0.01,19.516l36.893,36.902c-38.864,48.668-35.83,120.006,9.22,165.064
		c19.261,19.272,44.153,31.547,70.887,35.156c3.611,26.736,15.896,51.636,35.156,70.896c19.271,19.262,44.152,31.537,70.897,35.148
		c3.61,26.754,15.885,51.635,35.146,70.896c45.02,45,116.337,48.016,164.988,9.131L492.485,512l19.505-19.525L442.723,423.197z
		 M371.435,296.762c8.274,0,14.987,6.713,14.987,14.986c0,8.276-6.714,14.988-14.987,14.988c-8.274,0-14.988-6.713-14.988-14.988
		C356.447,303.475,363.161,296.762,371.435,296.762z M263.186,188.512c8.274,0,14.987,6.715,14.987,14.988
		c0,8.275-6.713,14.988-14.987,14.988c-8.274,0-14.987-6.713-14.987-14.988C248.199,195.226,254.912,188.512,263.186,188.512z
		 M135.803,61.129c8.274,0,14.988,6.715,14.988,14.988s-6.714,14.988-14.988,14.988s-14.987-6.715-14.987-14.988
		S127.529,61.129,135.803,61.129z M94.529,52.016c-2.293,5.162-4.058,11.154-5.22,17.77l-9.24-9.23
		C84.655,57.178,89.533,54.426,94.529,52.016z M137.589,224.518c-24.53,1.092-49.323-7.728-68.048-26.451
		c-17.769-17.77-26.608-40.982-26.618-64.303c0-18.93,5.932-37.74,17.641-53.695l28.842,28.854
		c1.972,11.504,5.659,23.096,11.427,33.799c12.02,22.314,49.597,56.73,99.33,52.974c-0.712,0.75-1.347,1.551-2.088,2.293
		c-16.812,16.81-38.522,25.594-60.447,26.529H137.589z M243.633,330.57c-24.52,1.104-49.334-7.746-68.039-26.453
		c-16.304-16.283-25.067-37.184-26.384-58.504c21.974-3.025,43.294-12.588,60.799-28.629c6.186,34.133,41.556,77.318,95.358,85.68
		c-0.43,0.449-0.81,0.928-1.249,1.375c-16.812,16.804-38.523,25.586-60.447,26.531H243.633z M410.152,410.084
		c-17.768,17.777-40.982,26.637-64.253,26.658c-23.3,0-46.494-8.802-64.271-26.58c-16.276-16.287-25.067-37.195-26.365-58.506
		c23.506-3.24,46.328-13.875,64.467-32.004c1.601-1.6,3.074-3.289,4.557-4.967c5.152,41.713,58.574,77.15,96.188,82.947
		C417.441,401.994,414.045,406.192,410.152,410.084z" style="fill: rgb(75, 75, 75);"></path>
</g>
</svg>
