<!--?xml version="1.0" encoding="utf-8"?-->
<!-- Generator: Adobe Illustrator 18.0.0, SVG Export Plug-In . SVG Version: 6.00 Build 0)  -->

<svg version="1.1" id="_x32_" xmlns="http://www.w3.org/2000/svg" xmlns:xlink="http://www.w3.org/1999/xlink" x="0px" y="0px" viewBox="0 0 512 512" style="width: 256px; height: 256px; opacity: 1;" xml:space="preserve">
<style type="text/css">
	.st0{fill:#4B4B4B;}
</style>
<g>
	<polygon class="st0" points="451.478,144.154 451.498,143.994 402.757,144.139 396.341,216.417 367.662,459.776 144.654,459.916 
		115.814,216.421 109.243,143.994 65.8,144.154 60.662,144.154 60.664,144.174 60.502,144.174 104.194,512 408.106,512 
		446.84,183.509 451.498,144.154 	" style="fill: rgb(75, 75, 75);"></polygon>
	<path class="st0" d="M195.777,203.848l1.669,14.806l-46.387,0.16h-4.932l0.002,0.016l-0.164,0.004l22.733,214.836H343.61
		l20.089-192.587l2.341-22.268h-0.018l0.016-0.16l-136.154,0.14L210.7,45.844L85.146,0.09l-0.09-0.035l0,0L84.906,0L73.973,30.35
		l106.471,38.851L195.777,203.848z M228.537,305.973c10.16,0,18.422,8.278,18.422,18.453c0,10.172-8.262,18.442-18.422,18.442
		c-10.176,0-18.453-8.27-18.453-18.442C210.084,314.251,218.361,305.973,228.537,305.973z M297.422,360.294
		c7.579,0,13.744,6.158,13.744,13.733c0,7.567-6.165,13.724-13.744,13.724c-7.575,0-13.736-6.158-13.736-13.724
		C283.686,366.452,289.847,360.294,297.422,360.294z M291.998,286.895c-13.459,0-24.412-10.952-24.412-24.412
		c0-13.459,10.952-24.408,24.412-24.408c13.459,0,24.408,10.948,24.408,24.408C316.406,275.943,305.458,286.895,291.998,286.895z" style="fill: rgb(75, 75, 75);"></path>
</g>
</svg>
