<!--?xml version="1.0" encoding="utf-8"?-->
<!-- Generator: Adobe Illustrator 18.1.1, SVG Export Plug-In . SVG Version: 6.00 Build 0)  -->

<svg version="1.1" id="_x32_" xmlns="http://www.w3.org/2000/svg" xmlns:xlink="http://www.w3.org/1999/xlink" x="0px" y="0px" viewBox="0 0 512 512" style="width: 256px; height: 256px; opacity: 1;" xml:space="preserve">
<style type="text/css">
	.st0{fill:#4B4B4B;}
</style>
<g>
	<path class="st0" d="M501.223,285.994C503.476,289.144,498.954,282.82,501.223,285.994L501.223,285.994z" style="fill: rgb(75, 75, 75);"></path>
	<path class="st0" d="M469.218,314.926c0,0,0-0.017,0.008-0.017c-0.008,0.017-0.016,0.026-0.025,0.042
		C469.209,314.943,469.218,314.935,469.218,314.926z" style="fill: rgb(75, 75, 75);"></path>
	<path class="st0" d="M475.433,165.344c-10.696-5.017-22.03-6.424-33.161-9.942c-12.112-3.827-23.26-10.244-33.949-16.986
		c-21.36-13.495-41.613-28.672-64.111-40.298c-44.688-23.11-96.084-29.258-144.314-13.67c-23.872,7.723-45.609,20.287-66.458,34.04
		c-20.404,13.452-40.675,29.635-64.312,37.006C46.822,162.463,25.002,165.906,10,186.016c-15.286,20.496-12.405,47.618,4.264,66.306
		c1.91,2.152,3.978,4.154,6.14,6.047c-0.444,2.513-0.544,5.06-0.26,7.598c0.302,2.772,1.038,5.377,2.144,7.932
		c-2.16,1.726-4.222,3.559-6.164,5.528c-8.795,8.929-14.558,20.631-14.558,33.321c-0.034,26.226,22.197,46.036,42.534,59.085
		c42.141,27.039,90.262,48.633,139.606,57.829c49.378,9.198,101.595,8.57,150.805-1.39c39.804-8.05,77.798-23.118,112.618-43.974
		c31.184-18.68,83.922-56.615,54.094-98.304c-1.7-2.378-3.627-4.607-5.688-6.684c-3.199-3.216-1.03-3.434,0.318-7.354
		c1.994-5.78,1.994-12.104-0.05-17.875c8.443-8.82,14.457-19.977,15.873-32.207C514.6,196.562,497.303,175.58,475.433,165.344z
		 M469.218,314.926c-0.277,0.594-0.168,0.36-0.017,0.025c-8.644,18.319-33.379,30.632-50.165,40.114
		c-20.673,11.676-42.568,21.133-65.343,27.884c-46.261,13.712-96.05,16.736-143.861,10.881
		c-50.609-6.199-97.499-26.753-140.888-52.938c-8.728-5.277-17.666-11.409-23.939-19.575c-7.84-10.21-0.318-16.149,9.197-21.418
		c22.49,9.767,46.814,15.488,70.779,20.338c60.443,12.213,122.309,17.33,183.808,11.969c31.52-2.738,62.964-7.354,93.872-14.147
		c14.256-3.132,28.445-6.734,42.316-11.316c4.515-1.499,13.109-6.76,17.096-4.113c4.405,2.932,9.799,6.558,7.152,12.279
		C469.444,314.424,469.737,313.804,469.218,314.926z M462.282,231.164c-17.557,12.539-43.171,15.948-63.844,19.876
		c-66.356,12.598-134.698,16.074-202.001,10.63c-18.327-1.483-172.357-14.508-156.342-49.604c-0.176,0.385-0.394,0.846,0.009-0.033
		c0.209-0.452,0.134-0.276,0.025-0.034c3.895-8.201,14.357-12.246,22.524-14.441c12.656-3.384,24.751-6.081,36.696-11.752
		c23.763-11.283,44.612-27.658,66.834-41.529c43.422-27.114,92.641-38.33,141.776-19.399
		c47.736,18.486,84.273,61.657,135.594,71.432c9.364,1.776,20.605,5.218,26.552,13.234
		C476.237,217.763,469.134,226.272,462.282,231.164z" style="fill: rgb(75, 75, 75);"></path>
	<path class="st0" d="M40.105,212.033c-0.009,0.016-0.009,0.025-0.009,0.025c0.009-0.016,0.017-0.034,0.034-0.058
		C40.121,212.008,40.113,212.016,40.105,212.033z" style="fill: rgb(75, 75, 75);"></path>
</g>
</svg>
