<!--?xml version="1.0" encoding="utf-8"?-->
<!-- Generator: Adobe Illustrator 18.1.1, SVG Export Plug-In . SVG Version: 6.00 Build 0)  -->

<svg version="1.1" id="_x32_" xmlns="http://www.w3.org/2000/svg" xmlns:xlink="http://www.w3.org/1999/xlink" x="0px" y="0px" viewBox="0 0 512 512" style="width: 256px; height: 256px; opacity: 1;" xml:space="preserve">
<style type="text/css">
	.st0{fill:#4B4B4B;}
</style>
<g>
	<path class="st0" d="M266.245,38.893V0h-20.49v38.893C185.496,44.102,138.212,94.6,138.204,156.212
		c-0.008,26.184,8.588,50.467,23.064,70.012l3.84,5.184h65.272v33.809h11.348c-0.125,17.518-0.783,34.083-1.643,48.676h-35.889
		c0,0,3.409,119.548-54.652,198.107h119.548c25.425-78.559,23.931-198.107,23.931-198.107h-32.409
		c0.852-14.632,1.502-31.166,1.627-48.676h19.372v-33.809h65.28l3.84-5.184c14.476-19.545,23.063-43.828,23.063-70.012
		C373.78,94.6,326.504,44.102,266.245,38.893z M333.684,205.787H178.317c-9.166-14.32-14.492-31.268-14.492-49.576
		c0-25.496,10.293-48.449,26.998-65.17C207.543,74.344,230.504,64.052,256,64.044c25.488,0.008,48.458,10.3,65.178,26.997
		c16.697,16.721,26.989,39.674,26.997,65.17C348.168,174.52,342.849,191.467,333.684,205.787z" style="fill: rgb(75, 75, 75);"></path>
</g>
</svg>
