<!--?xml version="1.0" encoding="utf-8"?-->
<!-- Generator: Adobe Illustrator 18.1.1, SVG Export Plug-In . SVG Version: 6.00 Build 0)  -->

<svg version="1.1" id="_x32_" xmlns="http://www.w3.org/2000/svg" xmlns:xlink="http://www.w3.org/1999/xlink" x="0px" y="0px" viewBox="0 0 512 512" style="width: 256px; height: 256px; opacity: 1;" xml:space="preserve">
<style type="text/css">
	.st0{fill:#4B4B4B;}
</style>
<g>
	<path class="st0" d="M325.505,96.79c-6.878-6.886-18.037-6.886-24.923,0l-202.75,202.75c-6.886,6.887-6.886,18.046,0,24.932
		l89.692,89.692c6.887,6.886,18.047,6.886,24.932,0l202.75-202.75c6.886-6.886,6.886-18.046,0-24.923L325.505,96.79z" style="fill: rgb(75, 75, 75);"></path>
	<path class="st0" d="M6.704,383.652c-4.005,1.28-6.713,5.009-6.704,9.204c0.018,4.204,2.76,7.907,6.773,9.153l44.05,13.677
		l-12.172,45.892c-0.882,3.314,0.07,6.843,2.5,9.274c2.422,2.422,5.952,3.374,9.265,2.492l45.893-12.18l13.667,44.058
		c1.254,4.014,4.957,6.756,9.162,6.773c4.196,0.009,7.924-2.699,9.205-6.704l31.004-97.322l-55.322-55.322L6.704,383.652z" style="fill: rgb(75, 75, 75);"></path>
	<path class="st0" d="M505.226,109.974l-44.058-13.668l12.18-45.884c0.873-3.322-0.069-6.852-2.501-9.274
		c-2.422-2.431-5.96-3.374-9.265-2.5l-45.892,12.18L402.013,6.769c-1.246-4.014-4.948-6.756-9.153-6.764
		c-4.204-0.018-7.924,2.69-9.204,6.695l-31.004,97.322l55.322,55.323l97.322-31.004c4.006-1.281,6.713-5.01,6.705-9.205
		C511.982,114.931,509.24,111.228,505.226,109.974z" style="fill: rgb(75, 75, 75);"></path>
</g>
</svg>
