<!--?xml version="1.0" encoding="utf-8"?-->
<!-- Generator: Adobe Illustrator 18.1.1, SVG Export Plug-In . SVG Version: 6.00 Build 0)  -->

<svg version="1.1" id="_x32_" xmlns="http://www.w3.org/2000/svg" xmlns:xlink="http://www.w3.org/1999/xlink" x="0px" y="0px" viewBox="0 0 512 512" style="width: 256px; height: 256px; opacity: 1;" xml:space="preserve">
<style type="text/css">
	.st0{fill:#4B4B4B;}
</style>
<g>
	<path class="st0" d="M442.722,423.198c38.902-48.621,35.868-119.948-9.144-164.978c-19.25-19.261-44.152-31.536-70.907-35.156
		c-3.6-26.744-15.865-51.626-35.136-70.897c-19.271-19.261-44.152-31.536-70.897-35.156c-3.61-26.735-15.895-51.616-35.156-70.887
		C176.413,1.074,105.048-1.99,56.417,36.893L19.524,0L0.01,19.516l36.893,36.902c-38.864,48.67-35.83,120.007,9.22,165.066
		c19.261,19.271,44.153,31.546,70.887,35.156c3.611,26.735,15.896,51.636,35.156,70.897c19.271,19.26,44.152,31.535,70.897,35.146
		c3.61,26.755,15.884,51.636,35.146,70.897c45.02,45.001,116.337,48.016,164.988,9.132L492.484,512l19.506-19.524L442.722,423.198z
		 M137.589,224.518c-24.53,1.093-49.324-7.728-68.048-26.452c-17.769-17.768-26.609-40.982-26.619-64.302
		c0-18.929,5.932-37.741,17.641-53.694l31.166,31.174l19.524-19.514L80.069,60.555c15.924-11.709,34.736-17.651,53.695-17.651
		c23.32,0.029,46.523,8.88,64.301,26.638c18.725,18.724,27.556,43.508,26.462,68.049l0.019-0.01v0.039
		c-0.966,21.934-9.748,43.654-26.472,60.369c-16.812,16.812-38.523,25.593-60.447,26.53H137.589z M243.632,330.571
		c-24.52,1.103-49.334-7.748-68.039-26.453c-16.304-16.284-25.067-37.185-26.384-58.505c23.515-3.239,46.338-13.865,64.476-32.014
		c18.081-18.07,28.687-40.893,31.926-64.39c21.31,1.298,42.22,10.09,58.506,26.385c18.714,18.714,27.554,43.517,26.462,68.029
		l0.01,0.039c-0.966,21.934-9.748,43.654-26.472,60.378c-16.812,16.803-38.523,25.584-60.447,26.531H243.632z M410.152,410.084
		c-17.768,17.778-40.982,26.638-64.253,26.658c-23.3,0-46.494-8.802-64.272-26.58c-16.275-16.285-25.067-37.195-26.365-58.505
		c23.506-3.24,46.329-13.875,64.468-32.005c18.071-18.09,28.687-40.902,31.926-64.399c21.31,1.298,42.22,10.1,58.496,26.384
		c17.768,17.778,26.588,40.963,26.598,64.253C436.74,369.162,427.891,392.345,410.152,410.084z" style="fill: rgb(75, 75, 75);"></path>
</g>
</svg>
