<!--?xml version="1.0" encoding="utf-8"?-->
<!-- Generator: Adobe Illustrator 18.1.1, SVG Export Plug-In . SVG Version: 6.00 Build 0)  -->

<svg version="1.1" id="_x32_" xmlns="http://www.w3.org/2000/svg" xmlns:xlink="http://www.w3.org/1999/xlink" x="0px" y="0px" viewBox="0 0 512 512" style="width: 256px; height: 256px; opacity: 1;" xml:space="preserve">
<style type="text/css">
	.st0{fill:#4B4B4B;}
</style>
<g>
	<path class="st0" d="M491.267,209.245c-13.288-26.058-32.356-49.241-55.626-68.545c-6.016-4.98-14.372-11.27-24.26-18.582
		c-14.788-10.924-32.835-23.953-49.539-36.424c-16.657-12.424-32.136-24.495-40.839-32.498
		c-12.887-11.828-24.927-23.309-34.312-32.026c-4.712-4.367-8.717-8.026-12.126-10.908c-1.736-1.453-3.259-2.702-5.105-3.99
		c-0.95-0.652-1.94-1.328-3.534-2.152c-0.825-0.416-1.791-0.872-3.244-1.366c-1.469-0.456-3.401-1.061-6.684-1.092
		c-3.196,0.032-5.16,0.613-6.644,1.084c-2.804,0.974-4.06,1.798-5.23,2.497c-2.042,1.296-3.338,2.356-4.79,3.542
		c-2.466,2.057-5.089,4.453-8.168,7.327c-9.134,8.568-22.131,21.369-36.762,34.783c-5.906,5.427-15.016,12.809-25.445,20.82
		c-15.684,12.055-34.445,25.68-51.386,38.027c-8.482,6.172-16.508,12.031-23.529,17.269c-7.037,5.246-13.021,9.825-17.686,13.689
		c-23.269,19.304-42.338,42.488-55.626,68.545C7.445,235.287-0.008,264.243,0,294.549c-0.008,30.299,7.445,59.263,20.733,85.297
		c13.288,26.066,32.357,49.241,55.634,68.545c46.556,38.6,109.98,61.925,179.633,61.948c69.653-0.023,133.078-23.348,179.641-61.948
		c23.27-19.304,42.338-42.479,55.626-68.545c13.288-26.034,20.741-54.998,20.733-85.297
		C512.008,264.243,504.555,235.287,491.267,209.245z M455.447,361.587c-10.586,20.764-26.066,39.754-45.48,55.854
		c-38.812,32.231-93.346,52.713-153.968,52.688c-60.621,0.024-115.156-20.458-153.96-52.68
		c-19.421-16.108-34.901-35.098-45.488-55.862c-4.837-9.495-8.607-19.366-11.34-29.537h421.575
		C464.054,342.22,460.285,352.091,455.447,361.587z" style="fill: rgb(75, 75, 75);"></path>
	<path class="st0" d="M129.999,377.631c7.406,0,13.406-6,13.406-13.398c0-7.406-6-13.406-13.406-13.406
		c-7.398,0-13.398,6-13.398,13.406C116.6,371.631,122.601,377.631,129.999,377.631z" style="fill: rgb(75, 75, 75);"></path>
	<path class="st0" d="M213.992,377.631c7.406,0,13.406-6,13.406-13.398c0-7.406-6-13.406-13.406-13.406
		c-7.398,0-13.398,6-13.398,13.406C200.594,371.631,206.594,377.631,213.992,377.631z" style="fill: rgb(75, 75, 75);"></path>
	<path class="st0" d="M297.993,377.631c7.406,0,13.406-6,13.406-13.398c0-7.406-6-13.406-13.406-13.406
		c-7.398,0-13.398,6-13.398,13.406C284.595,371.631,290.595,377.631,297.993,377.631z" style="fill: rgb(75, 75, 75);"></path>
	<path class="st0" d="M381.986,377.631c7.406,0,13.406-6,13.406-13.398c0-7.406-6-13.406-13.406-13.406
		c-7.398,0-13.398,6-13.398,13.406C368.588,371.631,374.588,377.631,381.986,377.631z" style="fill: rgb(75, 75, 75);"></path>
	<path class="st0" d="M166.628,428.569c7.406,0,13.406-6,13.406-13.398c0-7.406-6-13.406-13.406-13.406
		c-7.398,0-13.398,6-13.398,13.406C153.23,422.569,159.23,428.569,166.628,428.569z" style="fill: rgb(75, 75, 75);"></path>
	<path class="st0" d="M250.628,428.569c7.406,0,13.406-6,13.406-13.398c0-7.406-6-13.406-13.406-13.406
		c-7.398,0-13.398,6-13.398,13.406C237.23,422.569,243.23,428.569,250.628,428.569z" style="fill: rgb(75, 75, 75);"></path>
	<path class="st0" d="M334.622,428.569c7.406,0,13.406-6,13.406-13.398c0-7.406-6-13.406-13.406-13.406
		c-7.398,0-13.398,6-13.398,13.406C321.224,422.569,327.224,428.569,334.622,428.569z" style="fill: rgb(75, 75, 75);"></path>
</g>
</svg>
