<!--?xml version="1.0" encoding="utf-8"?-->
<!-- Generator: Adobe Illustrator 18.1.1, SVG Export Plug-In . SVG Version: 6.00 Build 0)  -->

<svg version="1.1" id="_x32_" xmlns="http://www.w3.org/2000/svg" xmlns:xlink="http://www.w3.org/1999/xlink" x="0px" y="0px" viewBox="0 0 512 512" style="width: 256px; height: 256px; opacity: 1;" xml:space="preserve">
<style type="text/css">
	.st0{fill:#4B4B4B;}
</style>
<g>
	<path class="st0" d="M472.732,96.729c-2.714-4.757-7.778-7.694-13.271-7.694h-12.94c-5.742,0-10.988,3.21-13.602,8.307
		l-34.784,67.903c-2.78-6.636-5.676-13.404-8.67-20.139c-5.809-13.089-11.931-26.095-18.236-38.283
		c-6.32-12.179-12.808-23.547-19.476-33.377c-19.774-29.232-40.062-47.739-59.34-58.843C273.167,3.508,255.048-0.024,240.718,0
		c-14.347-0.024-32.45,3.508-51.695,14.603c-19.212,11.054-39.4,29.464-59.108,58.521l-0.215,0.322
		c-6.254,9.259-12.377,19.874-18.334,31.242c-5.974,11.377-11.782,23.531-17.292,35.809c-6.156,13.627-11.948,27.445-17.193,40.484
		c-5.246,13.056-9.946,25.343-13.868,35.95c-3.16,8.556-5.824,15.976-7.893,21.834H38.555
		C27.121,318.004,91.606,386.28,199.018,407.361c18.997,3.732,19.129,25.194,19.129,33.245c0,5.966,0,7.033,0,7.19
		c0,25.946-37.728,32.847-65.645,42.933c-20.403,7.38-23.795,21.272-9.812,21.272h81.646h29.454h81.646
		c13.983,0,10.607-13.891-9.813-21.272c-27.916-10.086-65.644-16.986-65.644-42.933c0-0.157,0-1.224,0-7.19
		c0-8.05,0.132-29.512,19.129-33.245c107.41-21.081,171.913-89.356,160.463-168.595h-13.272c-1.919-5.444-4.352-12.245-7.231-20.048
		c-1.125-3.061-2.316-6.246-3.574-9.58l57.156-97.069C475.413,107.336,475.462,101.487,472.732,96.729z M253.79,238.766h-29.454
		H86.345c1.489-4.129,3.161-8.679,4.981-13.577c6.123-16.448,14.016-36.752,22.836-57.313c9.631,16.962,37.265,8.672,44.877-6.552
		c11.021-22.049,13.884-51.876,40.012-46.978c30.911,5.808,16.349,102.934,55.55,109.479c45.523,7.57,41.866-58.794,42.478-93.13
		c0.927-51.563,23.431-29.786,33.492,4.898c7.778,26.758,23.895,33.857,35.032,28.421c5.295,12.22,10.292,24.424,14.794,35.867
		c4.17,10.508,7.893,20.362,11.087,29.016c1.29,3.508,2.498,6.809,3.591,9.87H253.79z" style="fill: rgb(75, 75, 75);"></path>
</g>
</svg>
