<!--?xml version="1.0" encoding="utf-8"?-->
<!-- Generator: Adobe Illustrator 18.1.1, SVG Export Plug-In . SVG Version: 6.00 Build 0)  -->

<svg version="1.1" id="_x32_" xmlns="http://www.w3.org/2000/svg" xmlns:xlink="http://www.w3.org/1999/xlink" x="0px" y="0px" viewBox="0 0 512 512" style="width: 256px; height: 256px; opacity: 1;" xml:space="preserve">
<style type="text/css">
	.st0{fill:#4B4B4B;}
</style>
<g>
	<path class="st0" d="M449.991,150.187V59.164h-28.96L417.707,0H404.8H94.294l-3.324,59.164h-28.96v91.022h26.428l2.595,46.311
		h-4.915l12.178,216.853h4.302h0.604L108.738,512h294.525l5.538-98.649h4.906l12.169-216.853h-4.906l2.595-46.311H449.991z
		 M377.449,484.693H134.552l-4-71.342H381.45L377.449,484.693z M187.734,301.289c0-37.707,30.56-68.267,68.267-68.267
		c37.698,0,68.267,30.56,68.267,68.267c0,37.707-30.569,68.266-68.267,68.266C218.294,369.556,187.734,338.996,187.734,301.289z
		 M393.618,196.498H118.382l-2.853-50.862h280.943L393.618,196.498z M422.684,122.88h-12.026h-12.907h-0.258H114.507h-0.258H89.316
		V86.471h27.467l3.325-59.164h271.786l3.325,59.164h27.466V122.88z" style="fill: rgb(75, 75, 75);"></path>
	<polygon class="st0" points="256,319.849 275.876,330.293 272.089,308.16 288.169,292.48 265.947,289.254 256,269.112 
		246.054,289.254 223.832,292.48 239.912,308.16 236.125,330.293 	" style="fill: rgb(75, 75, 75);"></polygon>
	<path class="st0" d="M310.614,301.289c0-30.168-24.453-54.614-54.613-54.614c-30.169,0-54.613,24.445-54.613,54.614
		c0,30.169,24.444,54.613,54.613,54.613C286.16,355.902,310.614,331.458,310.614,301.289z M210.489,301.289
		c0-12.587,5.084-23.938,13.324-32.186c8.249-8.24,19.6-13.325,32.187-13.325c12.578,0,23.929,5.084,32.178,13.325
		c8.249,8.248,13.334,19.6,13.334,32.186c0,12.586-5.084,23.929-13.334,32.187c-8.249,8.239-19.6,13.324-32.178,13.324
		c-12.587,0-23.938-5.084-32.187-13.324C215.574,325.227,210.489,313.876,210.489,301.289z" style="fill: rgb(75, 75, 75);"></path>
</g>
</svg>
