<!--?xml version="1.0" encoding="utf-8"?-->
<!-- Generator: Adobe Illustrator 18.1.1, SVG Export Plug-In . SVG Version: 6.00 Build 0)  -->

<svg version="1.1" id="_x32_" xmlns="http://www.w3.org/2000/svg" xmlns:xlink="http://www.w3.org/1999/xlink" x="0px" y="0px" viewBox="0 0 512 512" style="width: 256px; height: 256px; opacity: 1;" xml:space="preserve">
<style type="text/css">
	.st0{fill:#4B4B4B;}
</style>
<g>
	<path class="st0" d="M490.134,79.814c-13.332-24.515-34.628-44.456-60.401-58.26C403.952,7.74,373.623,0,341.785,0
		c-28.055-0.009-57.305,6.037-85.477,19.333l-0.312,0.143l-0.294-0.143C227.521,6.037,198.279-0.009,170.215,0
		c-31.838,0-62.167,7.74-87.948,21.554c-25.764,13.805-47.059,33.745-60.401,58.26c-11.191,20.609-16.614,44.197-16.614,68.48
		c0.009,29.394,7.91,59.883,23.401,87.842c15.481,27.957,38.614,53.39,69.069,72.412l5.056,3.166l9.596-4.459
		c-2.39,6.225-5.039,12.94-7.188,20.61c-2.382,8.472-4.085,18.103-4.076,29.241c-0.009,42.69,17.39,81.474,45.409,109.476
		C174.531,494.61,213.315,512,255.995,512c42.69,0,81.474-17.39,109.485-45.418c28.019-28.002,45.418-66.786,45.409-109.476
		c0.009-10.558-1.552-19.307-3.951-26.691c-1.792-5.538-4.012-10.273-6.171-14.448c-1.632-3.138-3.219-5.966-4.628-8.64
		c-0.402-0.759-0.767-1.49-1.142-2.221l14.224,6.608l5.056-3.166c30.464-19.022,53.588-44.455,69.069-72.412
		c15.491-27.958,23.391-58.448,23.4-87.842C506.748,124.011,501.335,100.423,490.134,79.814z M104.428,286.673
		c-24.766-16.596-43.627-37.945-56.522-61.212c-13.743-24.783-20.644-51.732-20.636-77.166c0-21.028,4.691-40.968,13.939-57.966
		c10.987-20.235,28.992-37.33,51.456-49.37c22.446-12.038,49.298-18.95,77.55-18.941c23.141,0,47.228,4.628,70.727,14.813
		l2.078,14.705l-48.923,22.732l7.536,53.418l-48.923,22.731l7.526,53.418l-48.915,22.732l1.142,8.08l0.303,2.158l-1.177,0.481
		c0.705,1.722,1.347,3.381,1.953,5.004l5.315,37.678L104.428,286.673z M378.42,408.768c-10.086,23.828-26.976,44.152-48.192,58.501
		c-21.234,14.34-46.73,22.714-74.232,22.714c-18.335,0-35.77-3.728-51.652-10.451c-23.829-10.095-44.152-26.976-58.502-48.201
		c-14.349-21.225-22.714-46.722-22.714-74.224c0-7.946,1.034-14.652,2.631-20.957c1.204-4.727,2.729-9.23,4.414-13.787
		c2.524-6.813,5.449-13.76,7.839-21.608c0.606-1.997,1.177-4.066,1.686-6.189l3.237-1.506l-1.33-9.409
		c0.348-3.024,0.554-6.171,0.544-9.453c0-6.43-0.722-13.35-2.363-20.841c-0.972-4.424-2.265-9.061-3.906-13.93l48.433-22.508
		l-7.526-53.41l48.914-22.731l-7.526-53.418l37.82-17.586l37.83,17.586l-7.526,53.418l48.914,22.731l-7.527,53.41l47.033,21.857
		c-2.256,7.223-3.968,13.787-5.199,19.798c-1.73,8.499-2.515,15.927-2.515,22.607c-0.018,9.435,1.623,17.38,4.066,24.104
		c1.828,5.056,4.031,9.382,6.127,13.314c1.578,2.952,3.103,5.69,4.476,8.392c2.06,4.057,3.79,8.035,5.074,12.753
		c1.275,4.708,2.122,10.22,2.122,17.362C388.872,375.45,385.153,392.885,378.42,408.768z M464.094,225.461
		c-12.895,23.267-31.756,44.616-56.522,61.212l-14.428-6.706l7.536-53.4l-7.402-3.442l-41.513-19.29l7.527-53.418l-48.914-22.731
		l7.526-53.418L268.98,51.536l2.068-14.705c23.508-10.185,47.595-14.813,70.736-14.813c28.252-0.009,55.104,6.903,77.55,18.941
		c22.473,12.04,40.47,29.134,51.456,49.37c9.248,16.997,13.939,36.938,13.939,57.966
		C484.739,173.729,477.836,200.678,464.094,225.461z" style="fill: rgb(75, 75, 75);"></path>
	<path class="st0" d="M255.995,281.635c-41.681,0-75.48,33.79-75.48,75.471c0,41.682,33.799,75.481,75.48,75.481
		c41.691,0,75.481-33.799,75.481-75.481C331.476,315.424,297.686,281.635,255.995,281.635z M207.019,376.324
		c-2.345-5.957-3.674-12.422-3.674-19.218c0-29.072,23.57-52.642,52.651-52.642c6.787,0,13.252,1.329,19.218,3.664L207.019,376.324z
		" style="fill: rgb(75, 75, 75);"></path>
</g>
</svg>
